<svg xmlns="http://www.w3.org/2000/svg" viewBox="0 0 500 500"><defs><style>.\34 581563d-e02f-4118-93ea-d670ff2fba29{fill:none;stroke:#393e40;stroke-miterlimit:10;stroke-width:2px;}.\38 e993d4a-7ae9-4710-89f9-69da6e79b85e{fill:#393e40;}</style></defs><title>collect-relate-gainInsight-share</title><g id="93ede279-0368-4768-90a0-bd08de5831c2" data-name="圖層 1"><path class="4581563d-e02f-4118-93ea-d670ff2fba29" d="M69.11,377.21A220,220,0,0,1,28.5,249.5c0-122,99-221,221-221s221,99,221,221-98.95,221-221,221a220,220,0,0,1-108.11-28.2l-.47-.27"/><path class="4581563d-e02f-4118-93ea-d670ff2fba29" d="M339.36,373.35l-.26.18a152.84,152.84,0,1,1,44.22-49.81"/><path class="4581563d-e02f-4118-93ea-d670ff2fba29" d="M208.67,160.38a98.12,98.12,0,1,1-31.93,23.47l.21-.23"/></g><g id="0824b3c7-495e-4687-b454-787210c5e782" data-name="圖層 2"><path class="8e993d4a-7ae9-4710-89f9-69da6e79b85e" d="M101.5,366A47.5,47.5,0,1,1,54,413.5,47.56,47.56,0,0,1,101.5,366m0-2A49.5,49.5,0,1,0,151,413.5,49.5,49.5,0,0,0,101.5,364Z"/><path class="8e993d4a-7ae9-4710-89f9-69da6e79b85e" d="M364,319a32,32,0,1,1-32,32,32,32,0,0,1,32-32m0-2a34,34,0,1,0,34,34,34,34,0,0,0-34-34Z"/><path class="8e993d4a-7ae9-4710-89f9-69da6e79b85e" d="M191.5,152A18.5,18.5,0,1,1,173,170.5,18.52,18.52,0,0,1,191.5,152m0-2A20.5,20.5,0,1,0,212,170.5,20.5,20.5,0,0,0,191.5,150Z"/></g></svg>