<svg xmlns="http://www.w3.org/2000/svg" viewBox="0 0 500 500"><defs><style>.\34 1908e01-4f3e-4a99-a4f9-a0b5a5bacd80{fill:none;stroke:#393e40;stroke-miterlimit:10;stroke-width:2px;}.b7d3f847-f3d8-4cfe-b0ae-7913c3d9f64e{fill:#393e40;}</style></defs><title>collect-relate-gainInsight-share</title><g id="a543593e-eba7-4266-bfb5-bfd2f5ea5059" data-name="圖層 2"><path class="41908e01-4f3e-4a99-a4f9-a0b5a5bacd80" d="M98.51,403a73.43,73.43,0,1,1,24,21.65l-.16-.09"/><path class="41908e01-4f3e-4a99-a4f9-a0b5a5bacd80" d="M188.38,401.69l-.08.06A50.8,50.8,0,1,1,203,385.18"/><path class="41908e01-4f3e-4a99-a4f9-a0b5a5bacd80" d="M144.92,330.86a32.64,32.64,0,1,1-10.62,7.81l.07-.08"/><path class="b7d3f847-f3d8-4cfe-b0ae-7913c3d9f64e" d="M109.28,400.58A14.47,14.47,0,1,1,94.82,415a14.48,14.48,0,0,1,14.46-14.46m0-2A16.47,16.47,0,1,0,125.74,415a16.46,16.46,0,0,0-16.46-16.46Z"/><path class="b7d3f847-f3d8-4cfe-b0ae-7913c3d9f64e" d="M196.58,385a9.31,9.31,0,1,1-9.31,9.31,9.32,9.32,0,0,1,9.31-9.31m0-2a11.31,11.31,0,1,0,11.31,11.31A11.31,11.31,0,0,0,196.58,383Z"/><path class="b7d3f847-f3d8-4cfe-b0ae-7913c3d9f64e" d="M139.21,329.41a4.82,4.82,0,1,1-4.82,4.82,4.82,4.82,0,0,1,4.82-4.82m0-2a6.82,6.82,0,1,0,6.82,6.82,6.82,6.82,0,0,0-6.82-6.82Z"/><path class="41908e01-4f3e-4a99-a4f9-a0b5a5bacd80" d="M433.49,275a73.43,73.43,0,1,0-24,21.65l.16-.09"/><path class="41908e01-4f3e-4a99-a4f9-a0b5a5bacd80" d="M343.62,273.69l.08.06A50.8,50.8,0,1,0,329,257.18"/><path class="41908e01-4f3e-4a99-a4f9-a0b5a5bacd80" d="M387.08,202.86a32.64,32.64,0,1,0,10.62,7.81l-.07-.08"/><path class="b7d3f847-f3d8-4cfe-b0ae-7913c3d9f64e" d="M422.72,272.58A14.47,14.47,0,1,1,408.26,287a14.47,14.47,0,0,1,14.46-14.46m0-2A16.47,16.47,0,1,0,439.18,287a16.46,16.46,0,0,0-16.46-16.46Z"/><path class="b7d3f847-f3d8-4cfe-b0ae-7913c3d9f64e" d="M335.42,257a9.31,9.31,0,1,1-9.31,9.31,9.32,9.32,0,0,1,9.31-9.31m0-2a11.31,11.31,0,1,0,11.31,11.31A11.31,11.31,0,0,0,335.42,255Z"/><path class="b7d3f847-f3d8-4cfe-b0ae-7913c3d9f64e" d="M392.79,201.41a4.82,4.82,0,1,1-4.82,4.82,4.82,4.82,0,0,1,4.82-4.82m0-2a6.82,6.82,0,1,0,6.82,6.82,6.82,6.82,0,0,0-6.82-6.82Z"/><path class="41908e01-4f3e-4a99-a4f9-a0b5a5bacd80" d="M106.51,171a73.43,73.43,0,1,1,24,21.65l-.16-.09"/><path class="41908e01-4f3e-4a99-a4f9-a0b5a5bacd80" d="M196.38,169.69l-.08.06A50.8,50.8,0,1,1,211,153.18"/><path class="41908e01-4f3e-4a99-a4f9-a0b5a5bacd80" d="M152.92,98.86a32.64,32.64,0,1,1-10.62,7.81l.07-.08"/><path class="b7d3f847-f3d8-4cfe-b0ae-7913c3d9f64e" d="M117.28,168.58A14.47,14.47,0,1,1,102.82,183a14.48,14.48,0,0,1,14.46-14.46m0-2A16.47,16.47,0,1,0,133.74,183a16.46,16.46,0,0,0-16.46-16.46Z"/><path class="b7d3f847-f3d8-4cfe-b0ae-7913c3d9f64e" d="M204.58,153a9.31,9.31,0,1,1-9.31,9.31,9.32,9.32,0,0,1,9.31-9.31m0-2a11.31,11.31,0,1,0,11.31,11.31A11.31,11.31,0,0,0,204.58,151Z"/><path class="b7d3f847-f3d8-4cfe-b0ae-7913c3d9f64e" d="M147.21,97.41a4.82,4.82,0,1,1-4.82,4.82,4.82,4.82,0,0,1,4.82-4.82m0-2a6.82,6.82,0,1,0,6.82,6.82,6.82,6.82,0,0,0-6.82-6.82Z"/><line class="41908e01-4f3e-4a99-a4f9-a0b5a5bacd80" x1="221.5" y1="323.5" x2="310.5" y2="270.5"/><line class="41908e01-4f3e-4a99-a4f9-a0b5a5bacd80" x1="163.5" y1="201.5" x2="160.5" y2="287.5"/><line class="41908e01-4f3e-4a99-a4f9-a0b5a5bacd80" x1="232.5" y1="161.5" x2="307.5" y2="199.5"/></g></svg>