<svg id="d0b5330e-f1be-4eae-a134-4c90707ae363" data-name="圖層 1" xmlns="http://www.w3.org/2000/svg" viewBox="0 0 500 500"><defs><style>.\39 f280635-29b5-47b5-b8c1-b9d4719016a4{fill:none;stroke:#393e40;stroke-miterlimit:10;stroke-width:2px;}.\35 99bd2cd-5e81-44a4-bea7-7eaa0eedbfbb{fill:#393e40;}</style></defs><title>collect-relate-gainInsight-share</title><path class="9f280635-29b5-47b5-b8c1-b9d4719016a4" d="M359.32,442.11A221.11,221.11,0,0,1,78.7,389.64"/><path class="9f280635-29b5-47b5-b8c1-b9d4719016a4" d="M57.36,358.38A219.93,219.93,0,0,1,29,250C29,128,128,29,250,29s221,99,221,221a220,220,0,0,1-40.06,126.93"/><path class="599bd2cd-5e81-44a4-bea7-7eaa0eedbfbb" d="M164.5,94A39.5,39.5,0,1,1,125,133.5,39.55,39.55,0,0,1,164.5,94m0-2A41.5,41.5,0,1,0,206,133.5,41.5,41.5,0,0,0,164.5,92Z"/><path class="599bd2cd-5e81-44a4-bea7-7eaa0eedbfbb" d="M236,233a58,58,0,1,1-58,58,58.07,58.07,0,0,1,58-58m0-2a60,60,0,1,0,60,60,60,60,0,0,0-60-60Z"/><path class="599bd2cd-5e81-44a4-bea7-7eaa0eedbfbb" d="M376,173a18,18,0,1,1-18,18,18,18,0,0,1,18-18m0-2a20,20,0,1,0,20,20,20,20,0,0,0-20-20Z"/><path class="599bd2cd-5e81-44a4-bea7-7eaa0eedbfbb" d="M67,357.5A17.5,17.5,0,1,1,49.5,375,17.52,17.52,0,0,1,67,357.5m0-2A19.5,19.5,0,1,0,86.5,375,19.5,19.5,0,0,0,67,355.5Z"/><path class="599bd2cd-5e81-44a4-bea7-7eaa0eedbfbb" d="M398.5,366A47.5,47.5,0,1,1,351,413.5,47.56,47.56,0,0,1,398.5,366m0-2A49.5,49.5,0,1,0,448,413.5,49.5,49.5,0,0,0,398.5,364Z"/><line class="9f280635-29b5-47b5-b8c1-b9d4719016a4" x1="204.5" y1="144.5" x2="356.5" y2="186.5"/><line class="9f280635-29b5-47b5-b8c1-b9d4719016a4" x1="84.5" y1="366.5" x2="183.5" y2="318.5"/><line class="9f280635-29b5-47b5-b8c1-b9d4719016a4" x1="283.5" y1="327.5" x2="359.5" y2="384.5"/></svg>