<svg id="3052d1e0-88b1-44d4-9321-f7246f977f62" data-name="圖層 1" xmlns="http://www.w3.org/2000/svg" viewBox="0 0 550 550"><defs><style>.a7021d14-3290-412b-bbb9-c5f428585c5c{fill:#fff;}</style></defs><title>Hololink_logo_wo_words</title><path class="a7021d14-3290-412b-bbb9-c5f428585c5c" d="M400,174a225.2,225.2,0,1,1-87.95,17.74A224.55,224.55,0,0,1,400,174m0-49c-151.88,0-275,123.12-275,275S248.12,675,400,675,675,551.88,675,400,551.88,125,400,125Z" transform="translate(-125 -125)"/><path class="a7021d14-3290-412b-bbb9-c5f428585c5c" d="M399.5,205a194.89,194.89,0,1,1-76.09,15.36A194.24,194.24,0,0,1,399.5,205m0-12C284.9,193,192,285.9,192,400.5S284.9,608,399.5,608,607,515.1,607,400.5,514.1,193,399.5,193Z" transform="translate(-125 -125)"/></svg>