<?xml version="1.0" encoding="utf-8"?>
<!-- Generator: Adobe Illustrator 22.1.0, SVG Export Plug-In . SVG Version: 6.00 Build 0)  -->
<svg version="1.1" id="圖層_1" xmlns="http://www.w3.org/2000/svg" xmlns:xlink="http://www.w3.org/1999/xlink" x="0px" y="0px"
	 viewBox="0 0 800 800" style="enable-background:new 0 0 800 800;" xml:space="preserve">
<style type="text/css">
	.st0{fill:#343A40;}
	.st1{fill:none;}
	.st2{font-family:'HelveticaNeue-Bold';}
	.st3{font-size:160px;}
</style>
<g>
	<g>
		<g>
			<path class="st0" d="M400,91.5c30.5,0,60.1,6,88,17.7c26.9,11.4,51.1,27.7,71.9,48.5c20.8,20.8,37.1,44.9,48.5,71.9
				c11.8,27.8,17.7,57.4,17.7,88s-6,60.1-17.7,88c-11.4,26.9-27.7,51.1-48.5,71.9c-20.8,20.8-44.9,37.1-71.9,48.5
				c-27.8,11.8-57.4,17.7-88,17.7s-60.1-6-88-17.7c-26.9-11.4-51.1-27.7-71.9-48.5c-20.8-20.8-37.1-44.9-48.5-71.9
				C180,377.6,174,348,174,317.5s6-60.1,17.7-88c11.4-26.9,27.7-51.1,48.5-71.9s44.9-37.1,71.9-48.5C339.9,97.5,369.5,91.5,400,91.5
				 M400,42.5c-151.9,0-275,123.1-275,275c0,151.9,123.1,275,275,275c151.9,0,275-123.1,275-275C675,165.6,551.9,42.5,400,42.5
				L400,42.5z"/>
		</g>
		<g>
			<path class="st0" d="M399.5,122.5c26.4,0,52,5.2,76.1,15.4c23.3,9.8,44.2,23.9,62.1,41.9c18,18,32.1,38.9,41.9,62.1
				C589.8,266,595,291.6,595,318s-5.2,52-15.4,76.1c-9.8,23.3-23.9,44.2-41.9,62.1c-18,18-38.9,32.1-62.1,41.9
				c-24.1,10.2-49.7,15.4-76.1,15.4s-52-5.2-76.1-15.4c-23.3-9.8-44.2-23.9-62.1-41.9c-18-18-32.1-38.9-41.9-62.1
				C209.2,370,204,344.4,204,318s5.2-52,15.4-76.1c9.8-23.3,23.9-44.2,41.9-62.1c18-18,38.9-32.1,62.1-41.9
				C347.5,127.7,373.1,122.5,399.5,122.5 M399.5,110.5C284.9,110.5,192,203.4,192,318s92.9,207.5,207.5,207.5S607,432.6,607,318
				S514.1,110.5,399.5,110.5L399.5,110.5z"/>
		</g>
	</g>
	<rect x="83.1" y="609.3" class="st1" width="633.8" height="148.2"/>
	<text transform="matrix(1 0 0 1 83.1159 746.4375)" class="st0 st2 st3">Hololink</text>
</g>
</svg>
