<?xml version="1.0" encoding="iso-8859-1"?>
<!-- Generator: Adobe Illustrator 19.0.0, SVG Export Plug-In . SVG Version: 6.00 Build 0)  -->
<svg version="1.1" id="Capa_1" xmlns="http://www.w3.org/2000/svg" xmlns:xlink="http://www.w3.org/1999/xlink" x="0px" y="0px"
	 viewBox="0 0 418.034 418.034" style="enable-background:new 0 0 418.034 418.034;" xml:space="preserve">
<path style="fill:#FEDB41;" d="M352.119,204.427c15.898-0.003,28.787,12.882,28.79,28.78c0.003,15.898-12.882,28.787-28.78,28.79
	c-15.898,0.003-28.787-12.882-28.79-28.78c0-0.003,0-0.007,0-0.01C323.344,217.314,336.227,204.432,352.119,204.427z"/>
<g>
	<circle style="fill:#00EFD1;" cx="333.979" cy="48.617" r="38.38"/>
	<path style="fill:#00EFD1;" d="M323.339,340.447c18.703-0.003,33.867,15.157,33.87,33.86s-15.157,33.867-33.86,33.87
		s-33.867-15.157-33.87-33.86C289.48,355.615,304.638,340.453,323.339,340.447L323.339,340.447z"/>
</g>
<path style="fill:#00ACEA;" d="M241.739,255.567c-25.126,14.48-57.233,5.85-71.714-19.276c-14.48-25.126-5.85-57.233,19.276-71.714
	c25.126-14.48,57.233-5.85,71.714,19.276c4.595,7.972,7.013,17.012,7.014,26.214C268.085,228.858,258.047,246.231,241.739,255.567z"
	/>
<path style="fill:#00EFD1;" d="M133.769,329.807c17.173,15.158,18.806,41.367,3.648,58.54c-15.158,17.173-41.367,18.806-58.54,3.648
	s-18.806-41.367-3.648-58.54c7.874-8.921,19.201-14.03,31.1-14.028C116.437,319.42,126.197,323.112,133.769,329.807z"/>
<path style="fill:#FEDB41;" d="M94.759,97.757c0.003,15.898-12.882,28.787-28.78,28.79s-28.787-12.882-28.79-28.78
	s12.882-28.787,28.78-28.79c0.003,0,0.007,0,0.01,0c15.814-0.081,28.699,12.673,28.78,28.487
	C94.76,97.562,94.76,97.66,94.759,97.757z"/>
<path style="fill:#083863;" d="M275.355,228.086l38.068,7.558c1.339,21.382,19.759,37.631,41.141,36.291
	c21.382-1.339,37.631-19.759,36.291-41.141c-1.339-21.382-19.759-37.631-41.141-36.291c-13.861,0.868-26.201,9.08-32.353,21.532
	l-39.383-7.818c-0.412-14.919-6.178-29.191-16.245-40.21l53.068-74.978c24.579,10.665,53.15-0.614,63.815-25.193
	c10.665-24.579-0.614-53.15-25.193-63.815c-24.579-10.665-53.15,0.614-63.815,25.193c-7.652,17.636-4.169,38.126,8.881,52.243
	l-52.44,74.084c-25.117-14.05-56.581-9.132-76.213,11.912l-68.7-53.352c9.053-19.439,0.633-42.537-18.806-51.59
	s-42.537-0.633-51.59,18.806c-9.053,19.439-0.633,42.537,18.806,51.59c12.604,5.87,27.384,4.552,38.751-3.454l70.384,54.663
	c-11.275,24.727-5.285,53.905,14.819,72.191l-42.159,59.611c-24.886-13.87-56.304-4.939-70.174,19.947
	c-13.87,24.886-4.939,56.304,19.947,70.174c24.886,13.87,56.304,4.939,70.174-19.947c10.167-18.242,8.332-40.813-4.647-57.174
	l43.632-61.695c15.224,6.72,32.497,7.098,48,1.052l52.176,77.069c-15.959,18.174-14.163,45.844,4.011,61.803
	c18.174,15.959,45.844,14.163,61.803-4.011s14.163-45.844-4.011-61.803c-12.497-10.974-30.131-13.922-45.518-7.609l-51.209-75.638
	C264.915,250.23,271.807,239.803,275.355,228.086z M352.119,214.427c10.375-0.003,18.787,8.405,18.79,18.78
	c0.003,10.375-8.405,18.787-18.78,18.79c-10.375,0.003-18.787-8.405-18.79-18.78c0-0.003,0-0.007,0-0.01
	C333.354,222.841,341.753,214.441,352.119,214.427z M333.979,20.237c15.674,0,28.38,12.706,28.38,28.38s-12.706,28.38-28.38,28.38
	c-15.674,0-28.38-12.706-28.38-28.38C305.618,32.951,318.313,20.255,333.979,20.237z M47.189,97.757
	c-0.002-10.374,8.406-18.784,18.78-18.786s18.784,8.406,18.786,18.78c0.002,10.372-8.404,18.782-18.776,18.786
	C55.61,116.528,47.204,108.127,47.189,97.757z M106.329,392.397c-17.388,0.002-31.484-14.092-31.486-31.48
	c-0.002-17.388,14.092-31.484,31.48-31.486c17.388-0.002,31.484,14.092,31.486,31.48c0,0.002,0,0.004,0,0.006
	C137.79,378.295,123.707,392.377,106.329,392.397z M192.607,245.845c-19.799-12.67-25.578-38.991-12.908-58.79
	s38.991-25.578,58.79-12.908s25.578,38.991,12.908,58.79c-7.825,12.227-21.342,19.623-35.858,19.62
	C207.41,252.566,199.449,250.236,192.607,245.845z M347.209,374.317c-0.003,13.18-10.69,23.863-23.87,23.86
	c-13.18-0.003-23.863-10.69-23.86-23.87c0.003-13.176,10.684-23.857,23.86-23.86C336.517,350.459,347.197,361.139,347.209,374.317z"
	/>
<g>
</g>
<g>
</g>
<g>
</g>
<g>
</g>
<g>
</g>
<g>
</g>
<g>
</g>
<g>
</g>
<g>
</g>
<g>
</g>
<g>
</g>
<g>
</g>
<g>
</g>
<g>
</g>
<g>
</g>
</svg>
