<?xml version="1.0" encoding="iso-8859-1"?>
<!-- Generator: Adobe Illustrator 19.0.0, SVG Export Plug-In . SVG Version: 6.00 Build 0)  -->
<svg version="1.1" id="Capa_1" xmlns="http://www.w3.org/2000/svg" xmlns:xlink="http://www.w3.org/1999/xlink" x="0px" y="0px"
	 viewBox="0 0 418.026 418.026" style="enable-background:new 0 0 418.026 418.026;" xml:space="preserve">
<g>
	<g>
		<path d="M275.403,228.092l38.054,7.552c1.337,21.384,19.756,37.634,41.14,36.297c21.384-1.337,37.634-19.756,36.297-41.14
			c-1.337-21.384-19.756-37.634-41.14-36.297c-13.863,0.867-26.204,9.079-32.358,21.532l-39.379-7.815
			c-0.427-14.916-6.199-29.182-16.263-40.2l53.084-74.988c24.581,10.661,53.15-0.624,63.81-25.204s-0.624-53.15-25.204-63.81
			s-53.15,0.624-63.81,25.204c-7.649,17.637-4.163,38.126,8.889,52.24l-52.454,74.1c-25.096-14.084-56.571-9.157-76.162,11.922
			l-68.737-53.381c9.076-19.458,0.659-42.588-18.798-51.664c-19.458-9.076-42.588-0.659-51.664,18.798
			c-9.076,19.458-0.659,42.588,18.798,51.664c12.623,5.888,27.432,4.572,38.82-3.449l70.419,54.686
			c-11.312,24.707-5.322,53.895,14.808,72.148l-42.182,59.655c-24.902-13.883-56.344-4.951-70.227,19.951
			c-13.883,24.902-4.951,56.344,19.951,70.227c24.902,13.883,56.344,4.951,70.227-19.951c10.179-18.258,8.343-40.852-4.651-57.227
			l43.649-61.735c15.209,6.747,32.485,7.127,47.976,1.055l52.18,77.082c-15.957,18.174-14.159,45.842,4.014,61.798
			c18.174,15.957,45.842,14.159,61.798-4.014c15.957-18.174,14.159-45.842-4.014-61.798c-12.496-10.972-30.128-13.919-45.513-7.607
			l-51.219-75.662C264.948,250.225,271.853,239.807,275.403,228.092z M352.157,214.428c10.374,0,18.784,8.41,18.784,18.784
			c0,10.374-8.41,18.784-18.784,18.784c-10.374,0-18.784-8.41-18.784-18.784C333.382,222.841,341.787,214.436,352.157,214.428z
			 M334.01,20.237c15.674,0.001,28.381,12.708,28.38,28.382s-12.708,28.381-28.382,28.38c-15.674-0.001-28.38-12.707-28.38-28.381
			C305.647,32.95,318.343,20.254,334.01,20.237z M66.009,116.54c-10.369-0.012-18.772-8.415-18.784-18.784
			c0-10.374,8.41-18.784,18.784-18.784c10.374,0,18.784,8.41,18.784,18.784C84.793,108.13,76.384,116.54,66.009,116.54z
			 M106.363,392.398c-17.388-0.001-31.483-14.096-31.482-31.484c0.001-17.388,14.096-31.483,31.484-31.482
			c17.387,0.001,31.482,14.096,31.482,31.483C137.828,378.295,123.743,392.379,106.363,392.398z M323.374,350.449
			c13.174,0.015,23.849,10.69,23.864,23.864c0,13.18-10.684,23.864-23.864,23.864c-13.18,0-23.864-10.684-23.864-23.864
			C299.51,361.133,310.195,350.449,323.374,350.449z M215.572,252.56c-23.455-0.026-42.463-19.034-42.489-42.489h0
			c0-23.466,19.023-42.489,42.489-42.489c23.466,0,42.489,19.023,42.489,42.489C258.061,233.537,239.038,252.56,215.572,252.56z"/>
	</g>
</g>
<g>
</g>
<g>
</g>
<g>
</g>
<g>
</g>
<g>
</g>
<g>
</g>
<g>
</g>
<g>
</g>
<g>
</g>
<g>
</g>
<g>
</g>
<g>
</g>
<g>
</g>
<g>
</g>
<g>
</g>
</svg>
