<svg id="Layer_1" enable-background="new 0 0 512.01 512.01" height="512" viewBox="0 0 512.01 512.01" width="512" xmlns="http://www.w3.org/2000/svg"><path d="m512.003 256.006c0 68.38-26.629 132.667-74.98 181.02-48.353 48.352-112.64 74.98-181.02 74.98-14.919 0-29.875-1.295-44.452-3.849-10.88-1.906-18.154-12.271-16.248-23.152 1.907-10.879 12.27-18.149 23.152-16.248 12.303 2.156 24.936 3.249 37.548 3.249 119.103 0 216-96.897 216-216 0-9.81-.663-19.672-1.97-29.313-1.484-10.946 6.186-21.022 17.131-22.506 10.952-1.484 21.021 6.187 22.506 17.131 1.548 11.416 2.333 23.086 2.333 34.688zm-105.571-143.572c-19.785 35.035-58.386 91.813-129.918 163.346-71.811 71.81-129.345 110.363-164.964 130.06-8.588 4.749-18.065 7.172-27.642 7.172-4.99 0-10.007-.658-14.938-1.987-14.496-3.907-26.637-13.179-34.187-26.107-22.753-38.971-34.78-83.547-34.78-128.911 0-68.34 26.764-132.668 75.363-181.133 48.428-48.294 112.563-74.868 180.637-74.868 45.534.126 90.949 12.369 129.967 35.401 12.92 7.627 22.144 19.839 25.972 34.388 3.805 14.465 1.849 29.607-5.51 42.639zm-40.796-42.581c-32.896-19.419-71.207-29.741-109.633-29.847-57.416 0-111.515 22.428-152.392 63.192-41.02 40.905-63.608 95.174-63.608 152.81 0 38.282 10.14 75.885 29.324 108.739 4.559 7.808 14.816 10.541 22.865 6.089 33.367-18.451 87.523-54.828 156.036-123.34 68.343-68.342 104.813-121.865 123.373-154.731 4.529-8.019 1.852-18.297-5.965-22.912zm-292.242 439.791c21.313-4.311 46.717-14.439 75.509-30.104 59.012-32.108 125.13-83.41 186.178-144.457 61.047-61.047 112.349-127.166 144.457-186.177 15.665-28.792 25.794-54.197 30.104-75.509 5.427-26.828 1.507-47.103-11.652-60.262-10.845-10.844-26.46-15.004-46.425-12.367-10.95 1.447-18.654 11.498-17.206 22.448 1.446 10.951 11.492 18.649 22.448 17.207 8.622-1.14 12.232.332 12.897.995 1.609 1.61 3.834 8.708.731 24.047-3.47 17.152-12.473 39.395-26.036 64.322-30.325 55.736-79.194 118.599-137.605 177.009-58.41 58.411-121.273 107.28-177.01 137.605-24.927 13.563-47.169 22.566-64.322 26.036-15.337 3.101-22.438.878-24.047-.732-1.304-1.303-2.025-6.217-.698-14.255 1.8-10.898-5.576-21.192-16.474-22.991-10.9-1.806-21.191 5.576-22.991 16.474-3.496 21.174.5 37.679 11.878 49.058 9.333 9.332 22.245 14.019 38.536 14.019 6.68 0 13.927-.788 21.728-2.366z"/></svg>