<?xml version="1.0"?>
<svg xmlns="http://www.w3.org/2000/svg" id="Outline" viewBox="0 0 512 512" width="512px" height="512px"><g><path d="M496,264c0-26.266-14.413-51.374-41.681-72.612-23.853-18.578-56.44-33.372-94.625-43.015a32,32,0,0,0-63.088-10.562C283.271,136.615,269.652,136,256,136c-63.224,0-122.789,12.8-167.725,36.043C41.668,196.151,16,228.809,16,264s25.668,67.849,72.275,91.957C133.211,379.2,192.776,392,256,392a430.936,430.936,0,0,0,91.483-9.51,31.985,31.985,0,0,0,60.2-18.96C463.912,339.29,496,303.269,496,264ZM328,128a16,16,0,1,1-16,16A16.019,16.019,0,0,1,328,128ZM95.627,341.746C54.6,320.523,32,292.912,32,264s22.6-56.522,63.627-77.746C138.332,164.165,195.287,152,256,152c14,0,27.967.66,41.6,1.962a32.154,32.154,0,0,0,18.188,19.609A316.286,316.286,0,0,0,256,168c-38.6,0-75.179,6.559-105.77,18.967-28.339,11.495-49.111,27-60.506,45.081C89.153,232.017,88.578,232,88,232a32,32,0,0,0,0,64c.578,0,1.153-.017,1.724-.048,11.395,18.077,32.167,33.586,60.506,45.081C180.821,353.441,217.4,360,256,360c36.03,0,70.452-5.779,99.451-16.506a31.944,31.944,0,0,0-11.422,23.374A414.919,414.919,0,0,1,256,376C195.287,376,138.332,363.835,95.627,341.746ZM88,248a16,16,0,1,1-16,16A16.019,16.019,0,0,1,88,248Zm17.535-10.748c10.057-13.729,27.7-26.127,50.709-35.458C184.943,190.153,219.438,184,256,184c43.6,0,84.474,8.83,115.081,24.862C400.047,224.035,416,243.616,416,264s-15.953,39.965-44.919,55.138C340.474,335.17,299.6,344,256,344c-36.562,0-71.057-6.153-99.756-17.793-23-9.332-40.652-21.73-50.709-35.459a31.963,31.963,0,0,0,0-53.5ZM376,384a16,16,0,1,1,16-16A16.019,16.019,0,0,1,376,384Zm25.541-35.252A31.966,31.966,0,0,0,376,336c-1.076,0-2.139.055-3.187.159q2.894-1.388,5.692-2.847C413,315.242,432,290.627,432,264s-19-51.242-53.495-69.311a221.3,221.3,0,0,0-51.523-18.715c.339.011.677.026,1.018.026a31.966,31.966,0,0,0,25.482-12.672c37.035,9.086,68.419,23.092,91.006,40.684C467.72,222.106,480,242.849,480,264c0,16.706-7.457,32.88-22.165,48.076C444.362,326,424.984,338.6,401.541,348.748Z" data-original="#000000" class="active-path" data-old_color="#000000" fill="#FFFFFF"/><path d="M256,327.5c62.8,0,112-28,112-63.75S318.8,200,256,200s-112,28-112,63.75S193.2,327.5,256,327.5ZM224,264a32,32,0,1,1,32,32A32.036,32.036,0,0,1,224,264Zm32-48c52.037,0,96,21.867,96,47.75,0,24.549-39.549,45.482-88.024,47.575a48,48,0,1,0-15.952,0C199.549,309.232,160,288.3,160,263.75,160,237.867,203.963,216,256,216Z" data-original="#000000" class="active-path" data-old_color="#000000" fill="#FFFFFF"/></g> </svg>
